<svg width="1200" height="800" viewBox="0 0 1200 800" fill="none" xmlns="http://www.w3.org/2000/svg">
  <rect width="1200" height="800" fill="#050816"/>
  <rect x="80" y="70" width="1040" height="660" rx="26" fill="#0F172A"/>
  <rect x="110" y="110" width="980" height="96" rx="18" fill="#111827"/>
  <text x="150" y="170" fill="#F8FAFC" font-family="Arial, sans-serif" font-size="36" font-weight="700">NETFLIX</text>
  <rect x="700" y="130" width="120" height="26" rx="13" fill="#1E293B"/>
  <rect x="840" y="130" width="120" height="26" rx="13" fill="#1E293B"/>
  <rect x="980" y="130" width="80" height="26" rx="13" fill="#1E293B"/>

  <rect x="110" y="235" width="980" height="210" rx="24" fill="#1F2937"/>
  <rect x="150" y="270" width="280" height="140" rx="18" fill="#EF4444" fill-opacity="0.3"/>
  <text x="170" y="345" fill="#F8FAFC" font-family="Arial, sans-serif" font-size="36" font-weight="700">Trending</text>
  <text x="170" y="385" fill="#E2E8F0" font-family="Arial, sans-serif" font-size="18">Action • Drama • Drama</text>

  <rect x="490" y="270" width="160" height="130" rx="12" fill="#374151"/>
  <rect x="680" y="270" width="160" height="130" rx="12" fill="#374151"/>
  <rect x="870" y="270" width="160" height="130" rx="12" fill="#374151"/>

  <rect x="110" y="475" width="300" height="180" rx="20" fill="#111827"/>
  <rect x="440" y="475" width="300" height="180" rx="20" fill="#111827"/>
  <rect x="770" y="475" width="300" height="180" rx="20" fill="#111827"/>

  <rect x="140" y="510" width="240" height="110" rx="12" fill="#EAB308" fill-opacity="0.25"/>
  <rect x="470" y="510" width="240" height="110" rx="12" fill="#60A5FA" fill-opacity="0.2"/>
  <rect x="800" y="510" width="240" height="110" rx="12" fill="#A78BFA" fill-opacity="0.2"/>

  <text x="140" y="655" fill="#F8FAFC" font-family="Arial, sans-serif" font-size="22" font-weight="700">Action</text>
  <text x="470" y="655" fill="#F8FAFC" font-family="Arial, sans-serif" font-size="22" font-weight="700">Comedy</text>
  <text x="800" y="655" fill="#F8FAFC" font-family="Arial, sans-serif" font-size="22" font-weight="700">Thriller</text>
</svg>
